<svg xmlns="http://www.w3.org/2000/svg" width="98" height="40" viewBox="0 0 98 40" fill="none">
<path d="M51.2747 25.3112H42.0696L40.7308 28.5742H34.575L43.7799 8.62012H49.6507L58.8269 28.5742H52.6158L51.2747 25.3112ZM46.6876 14.2115L43.9897 20.6871H49.3391L46.6876 14.2115Z" fill="white"/>
<path d="M92.2067 16.6735L86.9038 22.7354H85.872L80.7016 16.7282V28.5742H74.9038V8.62012H81.0154L86.4663 15.3736L91.8886 8.62012H97.998V28.5742H92.2067V16.6735Z" fill="white"/>
<path d="M56.9158 20.3916L59.1761 25.3112H67.7315V28.5742H72.9482V8.62012H67.8177L56.9158 20.3916ZM67.7425 20.6871H62.8572L67.7315 15.4567L67.7425 20.6871Z" fill="white"/>
<path d="M35.7657 32.3887C36.7578 32.3887 37.2329 32.9949 37.2329 33.7542C37.2329 34.5136 36.7733 35.1636 35.7657 35.1636H34.5659V32.3887H35.7657ZM35.3525 34.4961H35.7679C36.2695 34.4961 36.4485 34.1241 36.4485 33.7433C36.4485 33.3625 36.254 33.0386 35.7679 33.0386H35.3525V34.4961Z" fill="white"/>
<path d="M40.1675 35.1592H37.9248V32.3887H40.1122V33.0452H38.7048V33.4435H40.0305V34.0825H38.7048V34.5005H40.1675V35.1592Z" fill="white"/>
<path d="M42.611 33.152C42.4184 33.0154 42.1847 32.9475 41.9481 32.9594C41.7581 32.9594 41.5681 33.0228 41.5681 33.1673C41.5681 33.3599 41.7581 33.3861 42.0343 33.4146C42.5889 33.4758 43.17 33.6925 43.17 34.3359C43.17 34.9793 42.5779 35.2331 41.9481 35.2331C41.7152 35.2542 41.4805 35.2208 41.2629 35.1356C41.0453 35.0505 40.8509 34.916 40.6953 34.7429L41.1372 34.2485C41.2457 34.3526 41.3741 34.4341 41.5149 34.4882C41.6557 34.5423 41.806 34.5679 41.957 34.5635C42.2177 34.5635 42.3989 34.4716 42.3989 34.3162C42.3989 34.1608 42.2442 34.0975 41.9327 34.0624C41.3184 34.0077 40.7903 33.8436 40.7903 33.1608C40.7903 32.5765 41.3737 32.3226 41.9636 32.3226C42.3417 32.3025 42.7144 32.4183 43.0131 32.6487L42.611 33.152Z" fill="white"/>
<path d="M46.0669 35.1592H43.8242V32.3887H46.0139V33.0452H44.6064V33.4435H45.9321V34.0825H44.6064V34.5005H46.0669V35.1592Z" fill="white"/>
<path d="M48.6453 33.9009C48.6254 33.5726 48.621 33.4413 48.621 33.3341V32.3887H49.4186V35.1636H48.7558L47.5869 33.6689L47.598 34.2751V35.1636H46.7981V32.3887H47.461L48.6453 33.9009Z" fill="white"/>
<path d="M51.8581 35.1702H51.0848L49.9226 32.3887H50.8064L51.129 33.2203L51.4803 34.2466L51.836 33.2203L52.1454 32.3887H53.0292L51.8581 35.1702Z" fill="white"/>
<path d="M54.8475 35.2334C53.9305 35.2334 53.3008 34.706 53.3008 33.7781C53.3008 32.8502 53.9416 32.3184 54.8475 32.3184C55.7534 32.3184 56.3942 32.8524 56.3942 33.7781C56.3942 34.7038 55.7622 35.2334 54.8475 35.2334ZM54.8475 32.9925C54.6377 32.9925 54.4365 33.075 54.2882 33.222C54.1398 33.3689 54.0565 33.5682 54.0565 33.7759C54.0565 33.9837 54.1398 34.183 54.2882 34.3299C54.4365 34.4769 54.6377 34.5594 54.8475 34.5594C54.9509 34.5634 55.0541 34.5457 55.1502 34.5074C55.2462 34.4692 55.3331 34.4114 55.405 34.3376C55.477 34.2639 55.5324 34.1759 55.5677 34.0795C55.603 33.9831 55.6173 33.8804 55.6098 33.7781C55.6205 33.6748 55.6084 33.5703 55.5744 33.472C55.5404 33.3737 55.4853 33.2839 55.4128 33.2088C55.3403 33.1337 55.2522 33.075 55.1546 33.0369C55.057 32.9988 54.9522 32.9822 54.8475 32.9881V32.9925Z" fill="white"/>
<path d="M57.89 32.3887V34.4983H59.2157V35.1548H57.0835V32.3887H57.89Z" fill="white"/>
<path d="M61.1248 35.1702H60.3515L59.1892 32.3887H60.073L60.3956 33.2203L60.7448 34.2466L61.1027 33.2203L61.4253 32.3887H62.3091L61.1248 35.1702Z" fill="white"/>
<path d="M62.793 35.1592V32.3887H63.5818V35.1636L62.793 35.1592Z" fill="white"/>
<path d="M66.7659 33.5026L66.0478 34.3583H65.9064L65.2082 33.5223V35.1702H64.4216V32.3887H65.2502L65.9882 33.3275L66.7284 32.3887H67.5547V35.1636H66.7704L66.7659 33.5026Z" fill="white"/>
<path d="M70.6326 35.1592H68.3899V32.3887H70.5795V33.0452H69.1721V33.4435H70.4978V34.0825H69.1721V34.5005H70.6326V35.1592Z" fill="white"/>
<path d="M73.2112 33.9009C73.1913 33.5726 73.1869 33.4413 73.1869 33.3341V32.3887H73.9845V35.1636H73.3217L72.1506 33.6689L72.1617 34.2751V35.1636H71.3618V32.3887H72.0247L73.2112 33.9009Z" fill="white"/>
<path d="M75.4186 33.0296H74.5989V32.373H77.0294V33.0296H76.2052V35.1589H75.4208L75.4186 33.0296Z" fill="white"/>
<path d="M79.0067 35.2334C78.0898 35.2334 77.4468 34.706 77.4468 33.7781C77.4468 32.8502 78.0898 32.3184 79.0067 32.3184C79.9237 32.3184 80.5534 32.8524 80.5534 33.7781C80.5534 34.7038 79.9193 35.2334 79.0067 35.2334ZM79.0067 32.9925C78.7969 32.9925 78.5957 33.075 78.4474 33.222C78.299 33.3689 78.2157 33.5682 78.2157 33.7759C78.2157 33.9837 78.299 34.183 78.4474 34.3299C78.5957 34.4769 78.7969 34.5594 79.0067 34.5594C79.1102 34.5634 79.2133 34.5457 79.3094 34.5074C79.4055 34.4692 79.4923 34.4114 79.5643 34.3376C79.6362 34.2639 79.6917 34.1759 79.7269 34.0795C79.7622 33.9831 79.7766 33.8804 79.769 33.7781C79.7797 33.6748 79.7677 33.5703 79.7337 33.472C79.6997 33.3737 79.6445 33.2839 79.572 33.2088C79.4995 33.1337 79.4115 33.075 79.3139 33.0369C79.2162 32.9988 79.1115 32.9822 79.0067 32.9881V32.9925Z" fill="white"/>
<path d="M34.5659 39.9302V37.1553H35.3525V39.9302H34.5659Z" fill="white"/>
<path d="M38.5389 38.2736L37.8186 39.1183H37.6794L36.979 38.2823V39.9302H36.1946V37.1553H37.0232L37.7612 38.0941L38.4947 37.1553H39.3299V39.9302H38.5455L38.5389 38.2736Z" fill="white"/>
<path d="M41.566 39.9999C40.649 39.9999 40.0083 39.4725 40.0083 38.5446C40.0083 37.6167 40.649 37.085 41.566 37.085C42.483 37.085 43.1127 37.6189 43.1127 38.5446C43.1127 39.4703 42.4808 39.9999 41.566 39.9999ZM41.566 37.759C41.4086 37.7533 41.253 37.7944 41.1192 37.8768C40.9855 37.9593 40.8796 38.0795 40.8153 38.2219C40.7509 38.3643 40.731 38.5226 40.758 38.6763C40.785 38.83 40.8578 38.9723 40.9669 39.0848C41.0761 39.1973 41.2167 39.275 41.3707 39.3078C41.5248 39.3407 41.6852 39.3272 41.8315 39.2692C41.9777 39.2112 42.1031 39.1112 42.1917 38.9821C42.2802 38.853 42.3278 38.7007 42.3283 38.5446C42.3383 38.4416 42.3258 38.3377 42.2915 38.2399C42.2571 38.1422 42.2019 38.0529 42.1295 37.9783C42.0571 37.9037 41.9692 37.8454 41.872 37.8076C41.7747 37.7697 41.6703 37.7531 41.566 37.759Z" fill="white"/>
<path d="M45.2404 37.1553C45.7994 37.1553 46.2546 37.4048 46.2546 37.9322C46.2651 38.0422 46.2413 38.1529 46.1864 38.2491C46.1315 38.3454 46.0481 38.4227 45.9475 38.4705C46.0671 38.5338 46.1667 38.6286 46.2353 38.7445C46.3039 38.8604 46.3389 38.9927 46.3363 39.127C46.3363 39.7464 45.7641 39.9389 45.2515 39.9389H43.8042V37.1553H45.2404ZM44.5775 38.2123H45.2117C45.3752 38.2123 45.4636 38.1291 45.4636 37.9934C45.4638 37.9626 45.4573 37.932 45.4448 37.9037C45.4322 37.8755 45.4137 37.8502 45.3905 37.8295C45.3673 37.8088 45.34 37.7933 45.3103 37.7838C45.2807 37.7743 45.2493 37.7712 45.2183 37.7746H44.5775V38.2123ZM44.5775 39.3065H45.2404C45.4459 39.3065 45.5343 39.2036 45.5343 39.0461C45.5359 39.0085 45.5292 38.971 45.5146 38.9363C45.5001 38.9015 45.478 38.8703 45.45 38.8449C45.422 38.8195 45.3888 38.8004 45.3526 38.789C45.3164 38.7777 45.2781 38.7743 45.2404 38.7791H44.5775V39.3065Z" fill="white"/>
<path d="M47.0347 39.9302V37.1553H47.8235V39.9302H47.0347Z" fill="white"/>
<path d="M49.4563 37.1553V39.2649H50.7975V39.9214H48.6631V37.1553H49.4563Z" fill="white"/>
<path d="M51.4204 39.9302V37.1553H52.2092V39.9302H51.4204Z" fill="white"/>
<path d="M54.9846 39.4749H53.7296L53.5462 39.9301H52.7065L53.9616 37.1552H54.7636L56.0143 39.9301H55.168L54.9846 39.4749ZM54.3593 37.943L53.9969 38.8184H54.715L54.3593 37.943ZM55.1326 36.3301L54.6907 36.9582H54.05V36.9341L54.3549 36.2842H55.1282L55.1326 36.3301Z" fill="white"/>
<path d="M59.1075 39.9302H58.2347L57.5719 39.0286H57.2957V39.9302H56.5024V37.1553H57.89C58.6103 37.1553 58.9838 37.6127 58.9838 38.1094C58.9926 38.2946 58.9389 38.4775 58.8313 38.6292C58.7238 38.781 58.5683 38.8929 58.3894 38.9476L59.1185 39.8842L59.1075 39.9302ZM57.3045 37.7812V38.4486H57.89C57.9323 38.4502 57.9744 38.4426 58.0135 38.4266C58.0526 38.4105 58.0877 38.3862 58.1164 38.3555C58.1452 38.3247 58.1669 38.2882 58.18 38.2484C58.1932 38.2085 58.1975 38.1664 58.1927 38.1247C58.197 38.0815 58.1922 38.0379 58.1785 37.9966C58.1649 37.9553 58.1427 37.9173 58.1134 37.885C58.0841 37.8527 58.0483 37.8267 58.0083 37.8089C57.9683 37.791 57.925 37.7816 57.8812 37.7812H57.3045Z" fill="white"/>
<path d="M59.7351 39.9302V37.1553H60.5239V39.9302H59.7351Z" fill="white"/>
<path d="M62.7667 39.9999C61.8497 39.9999 61.2068 39.4725 61.2068 38.5446C61.2068 37.6167 61.8497 37.085 62.7667 37.085C63.6837 37.085 64.3134 37.6189 64.3134 38.5446C64.3134 39.4703 63.6792 39.9999 62.7667 39.9999ZM62.7667 37.759C62.6092 37.7533 62.4537 37.7944 62.3199 37.8768C62.1862 37.9593 62.0803 38.0795 62.016 38.2219C61.9516 38.3643 61.9317 38.5226 61.9587 38.6763C61.9857 38.83 62.0585 38.9723 62.1676 39.0848C62.2768 39.1973 62.4174 39.275 62.5714 39.3078C62.7255 39.3407 62.8859 39.3272 63.0321 39.2692C63.1784 39.2112 63.3038 39.1112 63.3923 38.9821C63.4809 38.853 63.5284 38.7007 63.529 38.5446C63.539 38.4416 63.5265 38.3377 63.4921 38.2399C63.4578 38.1422 63.4026 38.0529 63.3302 37.9783C63.2578 37.9037 63.1699 37.8454 63.0727 37.8076C62.9754 37.7697 62.871 37.7531 62.7667 37.759Z" fill="white"/>
<path d="M21.1275 32.2535V11.4307H15.3606V26.5417L21.1275 32.2535Z" fill="white"/>
<path d="M28.8013 39.8557V5.70312H23.0344V34.1417L28.8013 39.8557Z" fill="white"/>
<path d="M5.76692 34.1417V8.53711H0V39.8556L5.76692 34.1417Z" fill="white"/>
<path d="M13.4276 26.5543L13.4474 0H7.68053L7.66064 32.2683L13.4276 26.5543Z" fill="white"/>
</svg>