<svg xmlns="http://www.w3.org/2000/svg" width="200" height="200" aria-hidden="true" aria-labelledby="svgcid--mki12u5p2dfa" data-bbox="21 10 158 180" data-type="color" preserveAspectRatio="xMidYMid meet" role="presentation" viewBox="21 10 158 180"><g><path fill="#fff" d="M142.726 154.306L179 84.493l-29.863 15.569 3.474-32.795-19.771 13.954L102.192 10 70.344 77.205c.248.166.455.373.703.538L51.566 63.954l4.053 38.551L21 84.493l36.15 69.814 40.575 9.482v22.899H84.076V190h30.607v-3.313h-13.649v-22.65l41.692-9.731zm-55.093-31.445l4.881 20.994 2.606 12.961-62.001-62.319 54.514 28.364zm57.037-46.253l-21.301 36.605-14.311 7.453-9.306 40.041-4.053-17.516-5.584-27.95 54.555-38.633zm20.433 18.593l-61.008 61.325 7.817-33.665 53.191-27.66zm-24.734 56.107l-34.413 8.033 63.283-63.602-28.87 55.569zm-11.54-40.952l19.192-33.002-2.564 24.348-16.628 8.654zm-24.858-9.11l-.455-.331V22.24l26.182 60.787-25.727 18.219zm-3.764-80.497v77.847l-27.63-19.545 27.63-58.302zm1.117 82.526l-14.849 10.518 1.075 5.342-3.64-1.905-25.974-44.638c.083.041.207.083.29.166l43.098 30.517zM55.826 75.49l22.625 38.923-19.647-10.228-2.978-28.695zM31.051 97.064l61.711 62.07-33.544-7.826-28.167-54.244z" data-color="1"/></g></svg>